<?xml version="1.0" encoding="utf-8"?>
<!-- Generator: Adobe Illustrator 21.0.2, SVG Export Plug-In . SVG Version: 6.00 Build 0)  -->
<svg version="1.1" id="Capa_1" xmlns="http://www.w3.org/2000/svg" xmlns:xlink="http://www.w3.org/1999/xlink" x="0px" y="0px"
	 width="470.5px" height="470.5px" viewBox="0 0 470.5 470.5" style="enable-background:new 0 0 470.5 470.5;" xml:space="preserve"
	>
<style type="text/css">
	.st0{clip-path:url(#SVGID_2_);fill:#FFFFFF;}
</style>
<g>
	<g>
		<defs>
			<rect id="SVGID_1_" x="105.5" y="2" width="256.8" height="467"/>
		</defs>
		<clipPath id="SVGID_2_">
			<use xlink:href="#SVGID_1_"  style="overflow:visible;"/>
		</clipPath>
		<path class="st0" d="M349.7,1.5l-59.9-0.1c-67.3,0-110.7,44.6-110.7,113.6v52.4h-60.2c-5.2,0-9.4,4.2-9.4,9.4v75.9
			c0,5.2,4.2,9.4,9.4,9.4h60.2v191.6c0,5.2,4.2,9.4,9.4,9.4h78.6c5.2,0,9.4-4.2,9.4-9.4V262.2h70.4c5.2,0,9.4-4.2,9.4-9.4l0-75.9
			c0-2.5-1-4.9-2.8-6.7c-1.8-1.8-4.2-2.7-6.7-2.7h-70.4v-44.4c0-21.4,5.1-32.2,32.9-32.2l40.3,0c5.2,0,9.4-4.2,9.4-9.4V11
			C359.1,5.7,354.9,1.5,349.7,1.5L349.7,1.5z M349.7,1.5"/>
	</g>
</g>
</svg>
