<?xml version="1.0" encoding="utf-8"?>
<!-- Generator: Adobe Illustrator 21.0.0, SVG Export Plug-In . SVG Version: 6.00 Build 0)  -->
<svg version="1.1" id="Capa_1" xmlns="http://www.w3.org/2000/svg" xmlns:xlink="http://www.w3.org/1999/xlink" x="0px" y="0px"
	 viewBox="0 0 510 510" style="enable-background:new 0 0 510 510;" xml:space="preserve">
<style type="text/css">
	.st0{fill:#FFFFFF;}
</style>
<g>
	<circle class="st0" cx="113" cy="78.5" r="64"/>
	<circle class="st0" cx="400.7" cy="78.5" r="64"/>
	<circle class="st0" cx="257.2" cy="174.4" r="95.8"/>
	<path class="st0" d="M257.2,461.5h113.7c58.8-3.7,61.5-53.7,61.5-53.7c0-82.2-14.1-101.9-14.1-101.9c-25.2-58-72-51.3-73.3-51.2
		c-1.3,0.1-36.8,22.7-36.8,22.7c-20.1,10.9-50.9,12-50.9,12h0c0,0-30.8-1.1-50.9-12c0,0-35.5-22.6-36.8-22.7
		c-1.3-0.1-48.1-6.8-73.3,51.2c0,0-14.1,19.7-14.1,101.9c0,0,2.7,50,61.5,53.7H257.2L257.2,461.5z"/>
	<path class="st0" d="M47.6,142.5c0,0-34.2-6.1-29.1,96.3c0,0,0.8,27.7,42,31.4h38.8c0,0,19.7-30.1,66-32.2c0,0-25-27.7-19.4-80.1
		c0,0-20.2,9.3-49.7,4.3c-3.8-1-7.5-2.1-11.3-3.1c-5.1-1.5-10.2-3.4-14.9-5.8c-4.9-2.5-9.4-5.8-14.4-8.1
		C53.1,143.9,50.4,142.7,47.6,142.5z"/>
	<path class="st0" d="M466.2,142.5c0,0,34.2-6.1,29.1,96.3c0,0-0.8,27.7-42,31.4h-38.8c0,0-19.7-30.1-66-32.2c0,0,25-27.7,19.4-80.1
		c0,0,20.2,9.3,49.7,4.3c3.8-1,7.5-2.1,11.3-3.1c5.1-1.5,10.2-3.4,14.9-5.8c4.9-2.5,9.4-5.8,14.4-8.1
		C460.7,143.9,463.4,142.7,466.2,142.5z"/>
</g>
</svg>
