<?xml version="1.0" encoding="utf-8"?>
<!-- Generator: Adobe Illustrator 21.0.2, SVG Export Plug-In . SVG Version: 6.00 Build 0)  -->
<svg version="1.1" id="Capa_1" xmlns="http://www.w3.org/2000/svg" xmlns:xlink="http://www.w3.org/1999/xlink" x="0px" y="0px"
	 width="470.5px" height="470.5px" viewBox="0 0 470.5 470.5" style="enable-background:new 0 0 470.5 470.5;" xml:space="preserve"
	>
<style type="text/css">
	.st0{fill:#FFFFFF;}
</style>
<g>
	<g>
		<g>
			<path class="st0" d="M331.656,8.148H140.16c-73.202,0-132.752,59.55-132.752,132.736v191.512
				c0,73.202,59.55,132.752,132.752,132.752h191.496c73.202,0,132.752-59.55,132.752-132.752V140.884
				C464.408,67.699,404.858,8.148,331.656,8.148z M428.715,332.396c0,53.506-43.537,97.034-97.059,97.034H140.16
				c-53.504,0-97.034-43.529-97.034-97.034V140.884c0-53.504,43.53-97.051,97.034-97.051h191.496
				c53.522,0,97.059,43.547,97.059,97.051V332.396z"/>
		</g>
	</g>
	<g>
		<g>
			<path class="st0" d="M235.908,113.454c-67.922,0-123.163,55.272-123.163,123.202c0,67.899,55.241,123.139,123.163,123.139
				c67.924,0,123.163-55.24,123.163-123.139C359.071,168.726,303.832,113.454,235.908,113.454z M235.908,324.11
				c-48.232,0-87.47-39.252-87.47-87.454c0-48.248,39.238-87.502,87.47-87.502c48.234,0,87.47,39.254,87.47,87.502
				C323.378,284.858,284.142,324.11,235.908,324.11z"/>
		</g>
	</g>
	<g>
		<g>
			<path class="st0" d="M360.872,93.819c9.872,0,17.851,8.002,17.851,17.851c0,9.865-7.979,17.851-17.851,17.851
				c-9.849,0-17.843-7.986-17.843-17.851C343.029,101.821,351.023,93.819,360.872,93.819z"/>
		</g>
	</g>
</g>
</svg>
