<?xml version="1.0" encoding="utf-8"?>
<!-- Generator: Adobe Illustrator 21.0.2, SVG Export Plug-In . SVG Version: 6.00 Build 0)  -->
<svg version="1.1" id="Capa_1" xmlns="http://www.w3.org/2000/svg" xmlns:xlink="http://www.w3.org/1999/xlink" x="0px" y="0px"
	 width="510px" height="510px" viewBox="0 0 510 510" style="enable-background:new 0 0 510 510;" xml:space="preserve">
<style type="text/css">
	.st0{fill:#FFFFFF;}
</style>
<g id="Capa_2">
</g>
<g>
	<path class="st0" d="M505.4,309.9V496H397.5V322.4c0-43.6-15.6-73.4-54.7-73.4c-29.8,0-47.6,20.1-55.4,39.4
		c-2.8,7-3.6,16.6-3.6,26.3V496H176c0,0,1.4-294.1,0-324.5h107.9v46c-0.2,0.3-0.5,0.7-0.7,1.1h0.7v-1.1
		c14.3-22.1,39.9-53.6,97.3-53.6C452.1,163.8,505.4,210.2,505.4,309.9L505.4,309.9z M63.1,15C26.1,15,2,39.2,2,71.1
		c0,31.2,23.5,56.1,59.6,56.1h0.7c37.6,0,61.1-24.9,61.1-56.1C122.7,39.2,100,15,63.1,15L63.1,15z M8.4,496h107.9V171.5H8.4V496z
		 M8.4,496"/>
</g>
</svg>
